<svg viewBox="0 0 119 41" xmlns="http://www.w3.org/2000/svg"><g fill="none" fill-rule="evenodd"><path fill="#FCB614" d="M14.943.221L.326 14.838v25.167l31.557-.028L46.54 25.453 46.554.758V.221z"/><path d="M87.638 18.952l-4.614 8.65v-9.154H76.93v17.993h5.68a.97.97 0 00.845-.49l4.795-8.657v9.147h6.089V18.448H88.49a.97.97 0 00-.852.504zm-2.11-2.197c-3.086 0-5.596-2.332-5.596-5.334h3.769c0 1.094.523 2.064 1.827 2.064 1.35 0 1.826-.97 1.826-2.064h3.768c0 3.002-2.51 5.334-5.594 5.334zm-28.085 1.693H41.66v5.377h4.776v12.616h6.23V23.825h4.777v-5.377zm12.398 17.993h5.92L69.28 18.96a.789.789 0 00-.74-.512h-5.865a.789.789 0 00-.74.513L55.45 36.44h5.92a.406.406 0 00.386-.279l.658-1.996h6.383l.657 1.996c.055.167.21.279.386.279zm-5.995-6.781l1.76-5.343 1.76 5.343h-3.52zm48.39-10.764l-4.32 7.296-4.32-7.296a.915.915 0 00-.786-.448h-5.692v17.993h6.23v-8.496l2.772 4.541a.485.485 0 00.414.232h2.767c.17 0 .326-.088.414-.232l2.77-4.541v8.496h6.231V18.448h-5.692a.915.915 0 00-.787.448zm-99.302-.455h6.025v6.414h4.987V18.44h6.025v18h-6.025v-6.414h-4.987v6.414h-6.025v-18zM4 36.44h6.44v-18H4v18z" fill="#221F20"/></g></svg>