<svg width="1224" height="546" fill="none" xmlns="http://www.w3.org/2000/svg"><path d="M961.402 74.75l-93.09 35.8v49.95l63.1-24.27c18.07-6.95 29.99-24.31 29.99-43.67V74.75zm-90.183 349.271h74.23c1.72 0 3.111-1.39 3.111-3.11v-249.42c0-1.72-1.391-3.11-3.111-3.11h-74.23c-1.72 0-3.11 1.39-3.11 3.11v249.42c-.01 1.71 1.39 3.11 3.11 3.11zM770.992 321.462c0-6.56.02-49.64-.1-86.85h56.81c1.72 0 3.11-1.39 3.11-3.11v-60.01c0-1.72-1.39-3.11-3.11-3.11h-56.7s.01-40.24-.01-47.38a3.092 3.092 0 00-3.11-3.07h-75.44c-1.72 0-3.12 1.36-3.11 3.09.05 19.19 0 124.83 0 209.79 0 92.57 84.8 93.18 114.73 93.19h24.52c1.72 0 3.11-1.39 3.11-3.11v-55.6a3.1 3.1 0 00-3.06-3.1c-26.56-.46-57.64-7.3-57.64-40.73zM62.16 389.951c0 16.36-8.84 40.18-58.05 40.64-1.71.02-3.13 1.38-3.13 3.09v55.58c0 1.72 1.39 3.11 3.11 3.11h24.52c29.93-.02 114.73-1.1 114.73-93.66 0-85.56-.05-206.51 0-227.25a3.09 3.09 0 00-3.11-3.09H65.31c-1.71 0-3.11 1.38-3.11 3.09-.07 25.66-.04 202.94-.04 218.49zm265.491-59.1c.11 21.34-12.74 33.52-35.19 33.52-22.45 0-35.12-12.19-35.12-33.57 0-15.31.1-138.24 0-159.35a3.1 3.1 0 00-3.11-3.08h-74.23c-1.72 0-3.12 1.37-3.11 3.1.06 15.28 0 93.38 0 167.82 0 93.86 87.2 94.19 115.61 94.19 28.41 0 115.61 0 115.61-94.19v-167.8c0-1.72-1.39-3.11-3.11-3.11h-74.23c-1.72 0-3.11 1.39-3.11 3.11v159.36h-.01zm744.599-69.27c-.11-21.34 12.74-33.52 35.19-33.52 22.45 0 35.12 12.19 35.12 33.57 0 15.31-.1 138.24 0 159.35a3.1 3.1 0 003.11 3.08h74.23c1.72 0 3.12-1.37 3.11-3.1-.06-15.28 0-93.38 0-167.82 0-93.86-87.2-94.19-115.61-94.19-28.4 0-115.611 0-115.611 94.19v167.8c0 1.72 1.39 3.11 3.11 3.11h74.231c1.72 0 3.11-1.39 3.11-3.11v-159.36h.01zm-468.908 13.91c-1.98-.45-49.16-8.9-51.36-9.31-21.17-3.9-34.97-10.61-34.97-24.18 0-9.02 6.9-23.98 34.79-23.98 30.32 0 34.09 18.27 34.37 27.03a3.083 3.083 0 003.1 2.97h64.93c1.74 0 3.17-1.42 3.11-3.16-.99-30.31-16.89-85.91-111.58-85.91-71.86 0-107.79 35.86-107.79 86.79 0 38.74 25.45 59.38 59.42 67.57 23.87 5.75 88.52 6.39 88.52 35.74 0 8.98-6.85 23.94-34.75 23.94-31.27 0-38.11-19.36-39.07-27.79-.18-1.56-1.5-2.7-3.07-2.7h-69.97c-1.77 0-3.2 1.45-3.12 3.22 1.04 24.6 18.51 88.56 113.8 88.56 75.48 0 113.05-34.41 113.05-86.75.01-38.75-25.32-64.19-59.41-72.04zM988.622.72l-120.31 45.6v49.95l90.1-34.15c18.18-6.89 30.2-24.31 30.2-43.75V.72h.01zM361.081 520.472h5.68v24.82h-15.13v-10.14h-22.7v10.14h-15.13v-24.82h5.6c2.12-3.83 3.17-9.18 3.17-16.04v-22.25h38.51v38.29zm-26.03 0h10.9v-24.37h-8.25v8.47c0 6.57-.88 11.86-2.65 15.9zm86.9 7.899c-5.42 5.32-12.07 7.98-19.94 7.98-7.87 0-14.51-2.66-19.94-7.98-5.43-5.32-8.13-11.89-8.13-19.71s2.71-14.39 8.13-19.71c5.42-5.32 12.07-7.98 19.94-7.98 7.87 0 14.51 2.66 19.94 7.98 5.43 5.32 8.14 11.89 8.14 19.71s-2.71 14.39-8.14 19.71zm-29.2-10.51c2.45 2.45 5.53 3.67 9.27 3.67 3.74 0 6.82-1.22 9.27-3.67 2.45-2.45 3.67-5.51 3.67-9.19 0-3.68-1.23-6.75-3.67-9.19-2.45-2.45-5.53-3.67-9.27-3.67-3.74 0-6.82 1.22-9.27 3.67-2.45 2.45-3.67 5.51-3.67 9.19 0 3.68 1.22 6.74 3.67 9.19zm74.111 18.499c-7.97 0-14.57-2.65-19.82-7.94-5.25-5.3-7.87-11.88-7.87-19.75 0-7.87 2.62-14.45 7.87-19.75 5.25-5.3 11.85-7.94 19.82-7.94 4.89 0 9.41 1.161 13.54 3.481 4.14 2.32 7.37 5.45 9.69 9.38l-13.16 7.569c-.86-1.71-2.19-3.08-4.01-4.09-1.82-1.01-3.84-1.51-6.06-1.51-3.73 0-6.76 1.21-9.08 3.63-2.32 2.42-3.48 5.5-3.48 9.23 0 3.73 1.16 6.811 3.48 9.231 2.32 2.42 5.34 3.63 9.08 3.63 2.27 0 4.3-.5 6.09-1.51s3.11-2.391 3.97-4.161l13.16 7.57c-2.32 3.99-5.55 7.141-9.69 9.461-4.12 2.31-8.64 3.469-13.53 3.469zm70.14-54.178v14.68h-12.49v38.29h-15.13v-38.29h-12.48v-14.68h40.1zm39.35 0h15.89l-15.289 35.86c-2.52 5.9-5.84 10.29-9.95 13.17-4.11 2.87-9.471 4.19-16.081 3.93v-14.07c4.59.35 8.07-.53 10.45-2.65l-17.56-36.24h15.891l9.149 20.13 7.5-20.13zm66.578 0v52.97H627.8v-38.29h-11.35v38.29h-15.13v-52.97h41.61zm40.859 0h15.13v52.97h-15.13v-19.52h-12.87v19.52h-15.13v-52.97h15.13v18.76h12.87v-18.76zm58.643 52.97l-1.82-6.81h-15.29l-1.81 6.81h-16.27l16.87-52.97h17.71l16.88 52.97h-16.27zm-13.85-18.92h8.78l-4.39-16.27-4.39 16.27zm102.749 4.24h5.68v24.82h-15.13v-10.14h-22.7v10.14h-15.13v-24.82h5.6c2.12-3.83 3.17-9.18 3.17-16.04v-22.25h38.51v38.29zm-26.03 0h10.9v-24.37h-8.25v8.47c0 6.57-.88 11.86-2.65 15.9zm86.9 7.899c-5.42 5.32-12.07 7.98-19.94 7.98-7.87 0-14.51-2.66-19.94-7.98-5.43-5.32-8.13-11.89-8.13-19.71s2.71-14.39 8.13-19.71c5.42-5.32 12.07-7.98 19.94-7.98 7.87 0 14.51 2.66 19.94 7.98 5.43 5.32 8.14 11.89 8.14 19.71s-2.71 14.39-8.14 19.71zm-29.2-10.51c2.45 2.45 5.53 3.67 9.27 3.67 3.74 0 6.821-1.22 9.271-3.67 2.45-2.45 3.669-5.51 3.669-9.19 0-3.68-1.229-6.75-3.669-9.19-2.45-2.45-5.531-3.67-9.271-3.67-3.74 0-6.82 1.22-9.27 3.67-2.45 2.45-3.67 5.51-3.67 9.19 0 3.68 1.22 6.74 3.67 9.19zm74.111 18.499c-7.97 0-14.57-2.65-19.82-7.94-5.25-5.3-7.87-11.88-7.87-19.75 0-7.87 2.62-14.45 7.87-19.75 5.25-5.3 11.85-7.94 19.82-7.94 4.89 0 9.41 1.161 13.54 3.481 4.14 2.32 7.37 5.45 9.69 9.38l-13.16 7.569c-.86-1.71-2.19-3.08-4.01-4.09-1.82-1.01-3.84-1.51-6.06-1.51-3.73 0-6.76 1.21-9.08 3.63-2.32 2.42-3.48 5.5-3.48 9.23 0 3.73 1.16 6.811 3.48 9.231 2.32 2.42 5.34 3.63 9.08 3.63 2.27 0 4.3-.5 6.09-1.51s3.11-2.391 3.97-4.161l13.16 7.57c-2.32 3.99-5.55 7.141-9.69 9.461-4.12 2.31-8.64 3.469-13.53 3.469zm70.138-54.178v14.68h-12.489v38.29h-15.13v-38.29h-12.49v-14.68h40.109zm36.7 52.97l-1.82-6.81h-15.29l-1.81 6.81h-16.27l16.87-52.97h17.71l16.88 52.97h-16.27zm-13.84-18.92h8.78l-4.39-16.27-4.39 16.27zm72.48-8.402c4.54 2.57 6.81 6.48 6.81 11.73 0 4.84-1.57 8.65-4.73 11.42-3.15 2.78-7.73 4.16-13.73 4.16h-22.4v-52.97h21.04c5.95 0 10.49 1.29 13.62 3.86 3.13 2.57 4.69 6.25 4.69 11.05-.01 4.6-1.77 8.18-5.3 10.75zm-13.92-12.63h-5v7.11l5.83-.08c2.17-.3 3.26-1.46 3.26-3.48 0-1.16-.41-2.04-1.22-2.65-.8-.6-1.76-.9-2.87-.9zm1.36 26.93c1.21 0 2.21-.35 3.02-1.06.81-.71 1.21-1.61 1.21-2.72 0-2.12-1.13-3.35-3.4-3.71l-7.19-.08v7.57h6.36zm74.67 13.022h-16.79l-13.17-22.7v22.7h-15.13v-52.97h15.13v21.19l12.41-21.19h16.8l-15.74 25.73 16.49 27.24zm41.24 0l-1.82-6.81h-15.29l-1.81 6.81h-16.27l16.87-52.97h17.71l16.88 52.97h-16.27zm-13.85-18.92h8.78l-4.39-16.27-4.39 16.27z" fill="#304FFE"/></svg>