<svg xmlns="http://www.w3.org/2000/svg" width="600" height="190"><path d="M454.2 75.8c-14.1-4.9-18.5-7.8-18.5-13.1 0-5.9 4.9-9.4 13.6-9.4 7.1 0 14.2 2 19.5 4.1l2.3-25.6c-6.5-1.8-14.4-3.2-23-3.2-28.5 0-46.8 16.2-46.8 37.6-.2 13.6 8.9 26.5 32.7 34.6 13.4 4.5 16.9 7.3 16.9 13.1 0 5.9-4.5 9.6-15.3 9.6-10.5 0-24.1-4.7-30.8-8.7l-6.3 25.6c8.7 4.7 22 8 37.2 8 33 0 49.8-15.7 49.8-37.2-.2-16.9-9.3-27.9-31.3-35.4zm86.5 43.5c-10.8 0-14.1-6.3-14.1-20.2V0l-35 8v23.1h-13.3l-2.4 26.3h15.8v46.9c0 16.2 3.3 27.2 9.9 34.1 5.6 5.9 15.2 9.9 26.7 9.9 10.1 0 18.5-1.2 23.2-3.1l-.2-27c-2.6.5-6.1 1-10.6 1.1zm-11.3-61.8h21.9V31.1h-21.9v26.4zM132.5 90.6c-.7-17.6-1.3-38.9-1.3-60.2h-.7c-4.7 18.7-11.1 39.6-17 56.7l-18.6 57.2H68L51.7 87.5c-5-17.2-10.2-38.1-13.8-57.2h-.4C36.6 50 35.9 72.7 34.8 91l-2.7 55.6H0L9.7.1h46L70.6 49c4.7 16.9 9.5 35.3 12.9 52.4h.7c4.3-16.9 9.5-36.4 14.5-52.6L115 .1h45.1l8.4 146.5h-33.8l-2.2-56zm189.3 9.4c1.2 14.8 15.7 21.8 32.5 21.8 12.2 0 22-1.6 31.8-4.7l4.7 24.2c-11.7 4.7-26 7-41.6 7-39 0-61.3-22.5-61.3-58.5 0-29.1 18.1-61.3 58-61.3 37.2 0 51.2 28.8 51.2 57.3 0 6.1-.7 11.5-1.2 14.1l-74.1.1zm42.1-24.5c0-8.7-3.8-23.2-20.2-23.2-15 0-21.1 13.6-22 23.2h42.2z" fill="#0862af"/><path d="M575.8.2L600 44.3l-24.2 44.3h-24.5l24.2-44.3L551.2.2h24.6c0-.1 0-.1 0 0zM276.3 190h-98.4v-24.4h98.4V190zm-69.5-90.1c1.2 14.8 15.7 21.8 32.5 21.8 12.2 0 22-1.6 31.8-4.7l4.7 24.2c-11.7 4.7-26 7-41.6 7-39 0-61.3-22.5-61.3-58.5 0-29.1 18.1-61.3 58-61.3 37.2 0 51.2 28.8 51.2 57.3 0 6.1-.7 11.5-1.2 14.1h-74.1v.1zm42.1-24.5c0-8.7-3.8-23.2-20.2-23.2-15 0-21.1 13.6-22.1 23.2h42.3z" fill="#ed1c24"/></svg>