<svg xmlns="http://www.w3.org/2000/svg" width="75mm" height="75mm" viewBox="0 0 7500 7500" shape-rendering="geometricPrecision" text-rendering="geometricPrecision" image-rendering="optimizeQuality" fill-rule="evenodd" clip-rule="evenodd"><defs><style>.fil0{fill:#ed1c24}</style></defs><g id="Слой_x0020_1"><g id="g4203"><path id="path3433" class="fil0" d="M3404 3094h117c43 0 64 21 64 69v168h229v-168c0-48 21-69 69-69h112v111h-48l-5 5v474h-128v-237h-229v237h-128v-474s0-5-5-5h-48v-111z"/><path id="path3435" class="fil0" d="M4330 3084h3v122l-3-1c-96 0-170 79-170 179 0 105 74 190 170 190l3-1v121l-3 1c-170 0-309-137-309-311 0-168 139-300 309-300z"/><path id="path3437" class="fil0" d="M4333 3084l59 6c141 27 247 147 247 294 0 152-106 276-247 304l-59 6v-121l65-14c63-29 108-96 108-175 0-75-45-138-108-165l-65-13v-122z"/><path id="path3439" class="fil0" d="M4665 3094h264v111h-83v121h83v105h-83v132c0 5 0 5 6 5h77v116h-146c-43 0-64-21-64-68v-411h-54v-111z"/><path id="path3441" class="fil0" d="M4929 3094h2c118 0 187 64 187 159 0 57-27 94-53 121 48 21 79 73 79 131 0 111-85 179-207 179h-8v-116h13c43 0 69-26 69-68s-26-69-69-69h-13v-105h2c38 0 59-26 59-63s-21-58-59-58h-2v-111z"/><path id="path3443" class="fil0" d="M5389 3094h64v169c-5 11-11 26-11 42l-42 121h53v111h-85l-37 95c-11 36-32 52-75 52h-80v-116h27c11 0 11 0 16-5l170-469z"/><path id="path3445" class="fil0" d="M5453 3094h64l170 469c5 5 5 5 16 5h21v116h-74c-43 0-64-16-75-58l-37-89h-85v-111h53l-42-121c0-16-6-31-11-42v-169z"/><path id="path3447" class="fil0" d="M3404 3852h463c43 0 69 22 69 69v400c0 5 0 5 6 5h42v116h-111c-48 0-70-21-70-68v-405s0-6-5-6h-213v479h-128v-479h-53v-111z"/><path id="path3449" class="fil0" d="M4320 3842h2v122l-2-1c-97 0-171 79-171 179 0 105 74 190 171 190l2-1v121l-2 1c-171 0-304-137-304-311 0-168 133-300 304-300z"/><path id="path3451" class="fil0" d="M4322 3842l61 6c143 27 245 147 245 294 0 152-102 276-245 304l-61 6v-121l68-14c63-29 105-96 105-175 0-75-42-138-105-165l-68-13v-122z"/><path id="path3453" class="fil0" d="M4655 3852h117c43 0 64 22 64 69v400c0 5 0 5 5 5h154v-474h128v474h155c5 0 5 0 5-5v-400c0-47 21-69 64-69h117v111h-48c-6 0-6 6-6 6v405c0 47-21 68-63 68h-570c-48 0-69-21-69-68v-405s0-6-5-6h-48v-111z"/><path id="path3455" class="fil0" d="M5565 3852h399c48 0 64 22 64 64v100h-117v-47c0-6 0-6-6-6h-74v479h-128v-479h-74c-6 0-6 0-6 6v47h-117v-100c0-42 16-64 59-64z"/><path id="path3457" class="fil0" d="M6193 3852h64v169c-6 11-11 26-11 42l-43 121h54v111h-86l-37 89c-10 42-32 58-74 58h-80v-116h27c10 0 10 0 16-5l170-468v-1z"/><path id="path3459" class="fil0" d="M6257 3852h63l171 469c5 5 5 5 16 5h21v116h-74c-43 0-64-16-75-58l-37-89h-85v-111h53l-43-121c0-16-5-31-10-42v-169z"/><path id="path3461" class="fil0" d="M2584 3345c6-2 14 2 22 13l362 352c21 21 21 53 0 69l-362 358c-8 10-16 13-22 10s-10-13-10-26v-753c0-13 4-21 10-23z"/><path id="path3463" class="fil0" d="M1965 2758h26l24 10 373 369c16 21 10 36-16 36h-155c-26 0-48 22-48 48v274c0 26-21 47-53 47h-271c-27 0-48-21-48-47v-274c0-26-21-48-48-48h-165c-27 0-32-15-16-36l373-369 24-10z"/><path id="path3465" class="fil0" d="M1382 3337c6 4 10 13 10 26v768c0 14-4 22-10 24-7 3-16 0-27-8l-367-368c-21-16-21-48 0-69l367-363c11-10 20-13 27-10z"/><path id="path3467" class="fil0" d="M1845 3942h271c32 0 54 21 54 48v289c0 32 21 53 47 53h144c27 0 37 15 16 31l-362 363c-11 11-24 16-37 16s-27-5-37-16l-362-363c-22-16-11-31 15-31h155c27 0 48-21 48-53v-289c0-27 21-48 48-48z"/></g></g></svg>