<svg xmlns="http://www.w3.org/2000/svg" height="76.9" width="287.5"><path d="M50.53 44.147l-25.46-5.762c-7.589-1.717-12.349-9.26-10.632-16.85 1.718-7.589 9.262-12.348 16.85-10.631 7.589 1.717 12.349 9.261 10.632 16.85a14.04 14.04 0 01-6.237 8.81l-.01.007a.353.353 0 00.12.63l11.328 2.561a.702.702 0 00.714-.261 24.582 24.582 0 004.995-14.852C52.83 11.526 42.58.803 29.648.041a28.033 28.033 0 00-17.63 5.05C-.73 14.018-3.827 31.587 5.098 44.334l22.65 32.349a.53.53 0 00.857-.003l22.244-31.723a.528.528 0 00-.318-.81" fill="#fabc26"/><path d="M72.323 15.147c.273 0 .453.09.544.272l7.552 12.888h.362L87.203 15.6c.135-.317.407-.452.77-.452h4.612c.407 0 .633.407.452.723L79.74 39.388c-.135.271-.406.408-.768.408h-4.523c-.497 0-.542-.317-.361-.68l3.572-6.105-10.673-17.276c-.181-.317-.045-.588.271-.588h5.065m28.655 0c.407 0 .633.226.633.633v9.672l10.177-9.944c.271-.226.678-.36 1.175-.36h5.518c.407 0 .543.36.226.677l-10.81 10.131 11.489 13.16c.316.317.136.68-.271.68h-5.427c-.498 0-.86-.137-1.132-.454L103.95 29.19l-2.339 2.175v7.797c0 .407-.226.633-.633.633h-3.98c-.407 0-.632-.226-.632-.633V15.78c0-.407.225-.633.632-.633h3.98m33.404 13.115c2.76 0 4.342-1.718 4.342-4.115 0-2.352-1.583-4.025-4.341-4.025h-6.56v8.14h6.56zm0-13.115c5.472 0 9.587 3.934 9.587 9 0 5.246-4.115 9.09-9.586 9.09h-6.56v5.925c0 .407-.226.633-.632.633h-3.98c-.407 0-.634-.227-.634-.633V15.78c0-.407.227-.633.633-.633h11.173m34.307 0c.406 0 .634.226.634.633v23.382c0 .407-.228.634-.634.634h-3.981c-.405 0-.633-.227-.633-.634V20.076h-10.945v19.086c0 .407-.226.634-.632.634h-3.98c-.408 0-.634-.227-.634-.634V15.78c0-.407.226-.633.634-.633h20.171m10.595 12.346c0 4.478 3.165 7.733 7.688 7.733 4.478 0 7.644-3.255 7.644-7.733 0-4.568-3.166-7.778-7.644-7.778-4.523 0-7.688 3.21-7.688 7.778m7.688-12.709c7.1 0 12.936 5.473 12.936 12.71 0 7.28-5.835 12.663-12.936 12.663-7.146 0-12.98-5.382-12.98-12.664 0-7.236 5.835-12.709 12.98-12.709m30.496 20.082V15.779c0-.406.225-.632.634-.632h3.888c.408 0 .634.226.634.632v19.087h7.734V15.779c0-.406.225-.632.632-.632h3.89c.408 0 .633.226.633.632v23.383c0 .407-.225.633-.633.633h-29.669c-.316 0-.633-.226-.633-.633V15.779c0-.406.225-.632.633-.632h3.89c.407 0 .633.226.633.632v19.087h7.734m43.177-19.719c.405 0 .633.226.633.633v3.708c0 .408-.228.633-.633.633h-7.87v19.04c0 .408-.227.634-.634.634h-3.98c-.406 0-.632-.226-.632-.633v-19.04h-7.87c-.406 0-.634-.226-.634-.634V15.78c0-.407.228-.633.634-.633h20.986m8.949 15.015h8.592l-3.978-10.13h-.498l-4.116 10.13zm10.402 4.749h-12.302l-1.718 4.341c-.134.362-.406.543-.768.543h-4.478c-.451 0-.587-.226-.451-.633l10.672-23.653c.09-.227.272-.362.59-.362h5.154c.316 0 .498.135.588.362L287.46 39.07c.136.363-.09.724-.498.724h-4.296c-.451 0-.77-.226-.95-.633l-1.719-4.251" fill="#2c2e2c"/><path d="M70.47 60.928V50.373h6.944v1.216h-5.55v9.339H70.47m10.364-5.293c0 2.64 1.439 4.344 3.68 4.344 2.21 0 3.65-1.72 3.65-4.344 0-2.608-1.44-4.298-3.68-4.298-2.493 0-3.65 2.045-3.65 4.298zm8.725-.074c0 3.1-1.706 5.619-5.06 5.619-3.383 0-5.06-2.58-5.06-5.649 0-3.29 1.974-5.41 5.045-5.41 3.28 0 5.075 2.297 5.075 5.44m10.919 5.367h-1.394v-9.34h-3.902l-.208 5.945c-.074 2.12-.846 3.618-2.448 3.618-.297 0-.742-.104-1.01-.208v-1.186c.194.119.594.148.757.148.757 0 1.307-.415 1.38-3.099l.193-6.433h6.633v10.555m4.686-5.293c0 2.64 1.438 4.344 3.68 4.344 2.21 0 3.65-1.72 3.65-4.344 0-2.608-1.44-4.298-3.68-4.298-2.493 0-3.65 2.045-3.65 4.298zm8.724-.074c0 3.1-1.706 5.619-5.06 5.619-3.383 0-5.06-2.58-5.06-5.649 0-3.29 1.974-5.41 5.045-5.41 3.28 0 5.075 2.297 5.075 5.44m4.648 4.196h2.79c1.409 0 2.789-.089 2.789-1.942 0-1.838-1.617-1.824-3.027-1.824h-2.552v3.766zm0-4.863h2.507c1.188 0 2.612-.089 2.612-1.675 0-1.587-1.232-1.66-2.478-1.66h-2.641v3.335zm3.146-4.521c1.75 0 3.367.697 3.367 2.638 0 1.038-.608 1.928-1.557 2.268 1.305.298 2.032 1.275 2.032 2.67 0 2.43-1.988 2.979-4.005 2.979h-4.348V50.373h4.51m15.544 10.555h-1.395V55.99h-5.579v4.937h-1.395V50.373h1.395v4.402h5.58v-4.402h1.394v10.555m7.79-9.221l-1.825 4.878h3.622l-1.797-4.878zm4.942 9.22H148.4l-1.173-3.23h-4.436l-1.201 3.23h-1.485l4.155-10.554h1.573l4.124 10.555m17.199 0h-1.395v-9.34h-5.579v9.34h-1.395V50.373h8.37v10.555m4.698-5.293c0 2.64 1.439 4.344 3.679 4.344 2.211 0 3.65-1.72 3.65-4.344 0-2.608-1.439-4.298-3.679-4.298-2.494 0-3.65 2.045-3.65 4.298zm8.724-.074c0 3.1-1.707 5.619-5.059 5.619-3.384 0-5.06-2.58-5.06-5.649 0-3.29 1.972-5.41 5.045-5.41 3.279 0 5.074 2.297 5.074 5.44m3.284-5.188h1.395v9.34h4.688v-9.34h1.394v9.34h4.689v-9.34h1.395v10.555h-13.561V50.373m25.017 1.216h-3.546v9.339h-1.395v-9.34h-3.546v-1.215h8.487v1.216m5.401.118l-1.824 4.878h3.62l-1.796-4.878zm4.943 9.22h-1.559l-1.173-3.23h-4.436l-1.201 3.23h-1.485l4.155-10.554h1.572l4.127 10.555m12.954-6.315l4.628 6.315h-1.78l-3.829-5.367-1.75 1.661v3.706h-1.395V50.373h1.395v5.233l5.357-5.233h1.825l-4.452 4.24m8.969.815h2.685c1.352 0 2.39-.37 2.39-1.927 0-1.69-1.202-1.928-2.582-1.928h-2.493v3.855zm2.953-5.055c2.019 0 3.516.844 3.516 3.039 0 2.387-1.542 3.187-3.605 3.187h-2.864v4.329h-1.395V50.373h4.348m9.688 1.334l-1.825 4.878h3.62l-1.794-4.878zm4.942 9.22h-1.558L256 57.698h-4.437l-1.202 3.23h-1.484l4.154-10.554h1.574l4.125 10.555m5.675-11.461h-1.336v-1.497h1.336v1.497zm-1.38 11.46h-1.395V50.373h1.395v10.555zm-1.425-11.46h-1.335v-1.497h1.335v1.497m13.652 11.46h-1.393V55.99h-5.579v4.937h-1.395V50.373h1.395v4.402h5.579v-4.402h1.394v10.555m3.839-10.555h1.395v8.94h.03l5.178-8.94h1.765v10.555h-1.394v-8.97h-.03l-5.194 8.97h-1.75V50.373" fill="#617171"/></svg>