<svg xmlns="http://www.w3.org/2000/svg" viewBox="0 0 272.1 133.2"><path fill="none" d="M0 0h272.1v133.2H0z"/><path d="M101.8 50.2c-1.3 1.5-3.3 2.7-5.3 2.5-.3-2 .7-4.2 1.9-5.5 1.3-1.5 3.5-2.6 5.3-2.7.2 2.1-.6 4.1-1.9 5.7m1.8 2.9c-2.9-.2-5.4 1.7-6.8 1.7-1.4 0-3.5-1.6-5.9-1.5-3 0-5.8 1.8-7.4 4.5-3.2 5.4-.8 13.5 2.2 17.9 1.5 2.2 3.3 4.6 5.7 4.5 2.2-.1 3.1-1.5 5.8-1.5 2.7 0 3.5 1.5 5.9 1.4 2.4 0 4-2.2 5.5-4.4 1.7-2.5 2.4-4.9 2.4-5 0 0-4.7-1.8-4.8-7.2 0-4.5 3.7-6.7 3.9-6.8-2-3.2-5.3-3.5-6.5-3.6m17-6.1v32.9h5.1V68.6h7.1c6.5 0 11-4.4 11-10.8S139.3 47 132.9 47h-12.3zm5.1 4.3h5.9c4.4 0 7 2.4 7 6.5s-2.5 6.5-7 6.5h-5.9v-13zm27.4 28.8c3.2 0 6.2-1.6 7.5-4.2h.1v3.9h4.7V63.5c0-4.7-3.8-7.8-9.6-7.8-5.4 0-9.4 3.1-9.6 7.4h4.6c.4-2 2.3-3.4 4.8-3.4 3.1 0 4.9 1.5 4.9 4.1v1.8l-6.4.4c-5.9.4-9.1 2.8-9.1 7 0 4.3 3.3 7.1 8.1 7.1zm1.3-3.9c-2.7 0-4.4-1.3-4.4-3.3 0-2.1 1.7-3.3 4.9-3.5l5.7-.4v1.9c-.1 3.1-2.7 5.3-6.2 5.3zm17.3 12.6c5 0 7.3-1.9 9.4-7.7l9-25.1h-5.2l-6 19.4h-.1l-6-19.4h-5.3l8.6 23.9-.5 1.5c-.8 2.5-2 3.4-4.3 3.4-.4 0-1.2 0-1.5-.1v3.9c.3.1 1.5.2 1.9.2z"/></svg>