<svg xmlns="http://www.w3.org/2000/svg" viewBox="0 0 272.1 133.2"><path fill="none" d="M0 0h272.1v133.2H0z"/><path fill="#5F6368" d="M132.9 66.1v13.5h-4.3V46.3H140c2.7-.1 5.4 1 7.3 2.9 2 1.8 3.1 4.3 3.1 7 .1 2.7-1.1 5.3-3.1 7.1-2 1.9-4.4 2.8-7.3 2.8h-7.1zm0-15.7V62h7.2c1.6 0 3.1-.6 4.2-1.7 2.2-2.2 2.3-5.8.1-8l-.1-.1c-1.1-1.2-2.6-1.8-4.2-1.8h-7.2zm27.3 5.7c3.2 0 5.6.8 7.5 2.5 1.8 1.7 2.7 4 2.7 6.9v14h-4.1v-3.2h-.2c-1.8 2.6-4.1 3.9-7.1 3.9-2.5 0-4.6-.7-6.3-2.2-1.6-1.4-2.6-3.4-2.5-5.6 0-2.4.9-4.2 2.7-5.6 1.8-1.4 4.2-2.1 7.1-2.1 2.5 0 4.6.5 6.3 1.4v-1c0-1.5-.6-2.8-1.8-3.8-1.1-1-2.6-1.6-4.1-1.6-2.4 0-4.3 1-5.7 3l-3.8-2.4c2.2-2.8 5.2-4.2 9.3-4.2zm-5.5 16.5c0 1.1.5 2.1 1.4 2.8.9.7 2.1 1.1 3.3 1.1 1.8 0 3.5-.7 4.8-2 1.4-1.3 2.1-2.9 2.1-4.7-1.3-1.1-3.2-1.6-5.6-1.6-1.7 0-3.2.4-4.3 1.3-1.1.8-1.7 1.8-1.7 3.1zm39.1-15.8l-14.3 32.8h-4.4l5.3-11.5-9.4-21.3h4.6l6.8 16.3h.1l6.6-16.3h4.7z"/><path fill="#4285F4" d="M115.7 63.2c0-1.3-.1-2.6-.3-3.9h-18v7.4h10.3c-.4 2.4-1.8 4.5-3.8 5.8v4.8h6.2c3.5-3.4 5.6-8.3 5.6-14.1z"/><path fill="#34A853" d="M97.3 81.8c5.2 0 9.5-1.7 12.7-4.6l-6.2-4.8c-1.7 1.2-3.9 1.8-6.5 1.8-5 0-9.2-3.4-10.7-7.9h-6.3v4.9c3.2 6.6 9.8 10.6 17 10.6z"/><path fill="#FBBC04" d="M86.6 66.4c-.8-2.4-.8-4.9 0-7.3v-4.9h-6.3c-2.7 5.4-2.7 11.7 0 17.1l6.3-4.9z"/><path fill="#EA4335" d="M97.3 51.2c2.7 0 5.4 1 7.3 2.9l5.4-5.4c-3.5-3.2-8-5-12.8-5-7.2 0-13.8 4.1-17.1 10.5l6.3 4.9c1.7-4.5 6-7.9 10.9-7.9z"/></svg>