<svg xmlns="http://www.w3.org/2000/svg" viewBox="0 0 272.1 133.2"><path fill="none" d="M0 0h272.1v133.2H0z"/><path d="M111.6 96.3v-4c0-1.5-.9-2.5-2.5-2.5-.8 0-1.7.3-2.2 1.1-.5-.7-1.1-1.1-2.1-1.1-.7 0-1.3.2-1.8.9V90h-1.4v6.3h1.4v-3.5c0-1.1.6-1.7 1.5-1.7s1.4.6 1.4 1.7v3.5h1.4v-3.5c0-1.1.7-1.7 1.5-1.7.9 0 1.4.6 1.4 1.7v3.5h1.4zm20.5-6.3h-2.2v-2h-1.4v2h-1.3v1.3h1.3v2.9c0 1.5.6 2.3 2.2 2.3.6 0 1.3-.2 1.7-.5l-.4-1.2c-.4.3-.9.3-1.2.3-.7 0-.9-.4-.9-1.1v-2.8h2.2V90zm11.7-.2c-.8 0-1.3.4-1.7.9v-.8h-1.4v6.3h1.4v-3.6c0-1.1.5-1.7 1.3-1.7.3 0 .6.1.9.1l.4-1.3c-.2.1-.6.1-.9.1zm-17.7.7c-.7-.5-1.6-.7-2.6-.7-1.6 0-2.6.8-2.6 2 0 1.1.8 1.7 2.2 1.8l.7.1c.7.1 1.1.3 1.1.7 0 .5-.5.8-1.5.8-.9 0-1.7-.3-2.1-.7l-.7 1.1c.7.5 1.7.8 2.7.8 1.8 0 2.9-.9 2.9-2s-.9-1.7-2.2-1.9l-.7-.1c-.6-.1-1.1-.2-1.1-.6 0-.5.5-.7 1.2-.7.8 0 1.6.3 2 .5l.7-1.1zm36.8-.7c-.8 0-1.3.4-1.7.9v-.8h-1.4v6.3h1.4v-3.6c0-1.1.5-1.7 1.3-1.7.3 0 .6.1.9.1l.4-1.3c-.2.1-.6.1-.9.1zm-17.7 3.3c0 1.9 1.3 3.3 3.4 3.3.9 0 1.6-.2 2.2-.7l-.7-1.1c-.5.4-1.1.6-1.7.6-1.1 0-1.9-.8-1.9-2s.8-2 1.9-2c.6 0 1.1.2 1.7.6l.7-1.1c-.7-.5-1.3-.7-2.2-.7-2.1-.2-3.4 1.2-3.4 3.1zm12.8 0V90h-1.4v.8c-.5-.6-1.1-.9-2-.9-1.8 0-3.2 1.4-3.2 3.3s1.4 3.3 3.2 3.3c.9 0 1.6-.3 2-.9v.8h1.4v-3.3zm-5.1 0c0-1.1.7-2 1.9-2 1.1 0 1.9.9 1.9 2s-.8 2-1.9 2c-1.1 0-1.9-.9-1.9-2zm-16.5-3.3c-1.8 0-3.2 1.3-3.2 3.3 0 2 1.3 3.3 3.2 3.3.9 0 1.8-.3 2.6-.9l-.7-1c-.5.4-1.2.7-1.8.7-.9 0-1.7-.4-1.9-1.5h4.7v-.5c.1-2.1-1.1-3.4-2.9-3.4zm0 1.2c.9 0 1.5.5 1.6 1.5h-3.3c.1-.8.7-1.5 1.7-1.5zm34.3 2.1v-5.7h-1.4v3.3c-.5-.6-1.1-.9-2-.9-1.8 0-3.2 1.4-3.2 3.3s1.4 3.3 3.2 3.3c.9 0 1.6-.3 2-.9v.8h1.4v-3.2zm-5 0c0-1.1.7-2 1.9-2 1.1 0 1.9.9 1.9 2s-.8 2-1.9 2c-1.2 0-1.9-.9-1.9-2zm-46.3 0V90H118v.8c-.5-.6-1.1-.9-2-.9-1.8 0-3.2 1.4-3.2 3.3s1.4 3.3 3.2 3.3c.9 0 1.6-.3 2-.9v.8h1.4v-3.3zm-5.2 0c0-1.1.7-2 1.9-2 1.1 0 1.9.9 1.9 2s-.8 2-1.9 2c-1.1 0-1.9-.9-1.9-2z"/><path fill="#FF5A00" d="M125.6 41.9h20.8v37.3h-20.8z"/><path fill="#EB001B" d="M127 60.5c0-7.6 3.6-14.3 9-18.7-4-3.2-9.1-5.1-14.6-5.1-13.1 0-23.7 10.6-23.7 23.7s10.6 23.7 23.7 23.7c5.5 0 10.6-1.9 14.6-5.1-5.4-4.1-9-10.9-9-18.5z"/><path fill="#F79E1B" d="M174.4 60.5c0 13.1-10.6 23.7-23.7 23.7-5.5 0-10.6-1.9-14.6-5.1 5.5-4.4 9-11.1 9-18.7s-3.6-14.3-9-18.7c4-3.2 9.1-5.1 14.6-5.1 13.1.2 23.7 10.9 23.7 23.9z"/></svg>