<svg xmlns="http://www.w3.org/2000/svg" viewBox="0 0 272.1 133.2"><path fill="none" d="M0 0h272.1v133.2H0z"/><path fill="#161E6F" d="M124.2 51.3l-12.8 30.9H103l-6.3-24.7c-.4-1.5-.7-2-1.9-2.7-2.5-1.2-5.1-2.1-7.8-2.6l.2-.9h13.5c1.8 0 3.4 1.4 3.6 3.2l3.3 17.8 8.2-21h8.4zM157.1 72c-.1 6.4-5.5 10.6-13.8 10.5-3 .1-6-.5-8.8-1.6l1.5-6.8c2.5 1.4 5.3 2 8.1 2 2.3 0 4.8-1 4.8-3 0-1.3-1.1-2.4-4.1-3.8-3-1.5-7-3.9-6.9-8.4.1-5.9 5.6-10.2 13.4-10.2 2.5 0 5.1.5 7.4 1.4l-1.4 6.5c-2.4-1.2-5.1-1.6-7.8-1.4-2.3.3-3.4 1.5-3.4 2.6-.2 3.6 11 4.1 11 12.2zm20.6 10.1l-1-4.6h-10.2l-1.6 4.6h-8.3l11.9-28.6c.6-1.4 1.9-2.3 3.4-2.3h6.8l6.4 30.9h-7.4zm-8.9-10.9h6.6L173 59.7l-4.2 11.5zm-33.3-19.9L129 82.2h-7.9l6.5-30.9h7.9z"/></svg>