<svg xmlns="http://www.w3.org/2000/svg" width="24" height="24" fill="#5d5d5d"><path d="M24 2v22H0V2h3v1c0 1.103.897 2 2 2s2-.897 2-2V2h10v1c0 1.103.897 2 2 2s2-.897 2-2V2h3zm-2 6H2v14h20V8zm-2-7a1 1 0 10-2 0v2a1 1 0 102 0V1zM6 3a1 1 0 11-2 0V1a1 1 0 112 0v2zm6.687 13.482c0-.802-.418-1.429-1.109-1.695.528-.264.836-.807.836-1.503 0-1.346-1.312-2.149-2.581-2.149-1.477 0-2.591.925-2.659 2.763h1.645c-.014-.761.271-1.315 1.025-1.315.449 0 .933.272.933.869 0 .754-.816.862-1.567.797v1.28c1.067 0 1.704.067 1.704.985 0 .724-.548 1.048-1.091 1.048-.822 0-1.159-.614-1.188-1.452H7.001C6.969 18.002 8.115 19 9.843 19c1.543 0 2.844-.943 2.844-2.518zM17 19v-7.718h-1.392c-.173 1.154-.995 1.491-2.171 1.459v1.346h1.852V19H17z"/></svg>